<?xml version="1.0" standalone="no"?><svg xmlns="http://www.w3.org/2000/svg" viewBox="0 0 1440 320"><path fill="#000000" fill-opacity="1" d="M0,192L20,202.7C40,213,80,235,120,213.3C160,192,200,128,240,90.7C280,53,320,43,360,48C400,53,440,75,480,106.7C520,139,560,181,600,202.7C640,224,680,224,720,213.3C760,203,800,181,840,192C880,203,920,245,960,256C1000,267,1040,245,1080,218.7C1120,192,1160,160,1200,128C1240,96,1280,64,1320,53.3C1360,43,1400,53,1420,58.7L1440,64L1440,0L1420,0C1400,0,1360,0,1320,0C1280,0,1240,0,1200,0C1160,0,1120,0,1080,0C1040,0,1000,0,960,0C920,0,880,0,840,0C800,0,760,0,720,0C680,0,640,0,600,0C560,0,520,0,480,0C440,0,400,0,360,0C320,0,280,0,240,0C200,0,160,0,120,0C80,0,40,0,20,0L0,0Z"></path></svg>